<mxfile host="app.diagrams.net" agent="Mozilla/5.0 (Windows NT 10.0; Win64; x64; rv:128.0) Gecko/20100101 Firefox/128.0" version="24.7.6">
  <diagram name="Page-1" id="rzgoovnxlMrvQEYHBoma">
    <mxGraphModel grid="1" page="1" gridSize="10" guides="1" tooltips="1" connect="1" arrows="1" fold="1" pageScale="1" pageWidth="850" pageHeight="1100" math="0" shadow="0">
      <root>
        <mxCell id="0" />
        <mxCell id="1" parent="0" />
        <mxCell id="IcqPFcGgj8i7zT8kl1B3-1" value="Announcer" style="swimlane;fontStyle=1;align=center;verticalAlign=top;childLayout=stackLayout;horizontal=1;startSize=26;horizontalStack=0;resizeParent=1;resizeParentMax=0;resizeLast=0;collapsible=1;marginBottom=0;whiteSpace=wrap;html=1;" vertex="1" parent="1">
          <mxGeometry x="210" y="220" width="180" height="150" as="geometry" />
        </mxCell>
        <mxCell id="XpLS7fQvpL7s-l0cFpdj-11" value="- station: String" style="text;strokeColor=none;fillColor=none;align=left;verticalAlign=top;spacingLeft=4;spacingRight=4;overflow=hidden;rotatable=0;points=[[0,0.5],[1,0.5]];portConstraint=eastwest;whiteSpace=wrap;html=1;" vertex="1" parent="IcqPFcGgj8i7zT8kl1B3-1">
          <mxGeometry y="26" width="180" height="34" as="geometry" />
        </mxCell>
        <mxCell id="IcqPFcGgj8i7zT8kl1B3-3" value="" style="line;strokeWidth=1;fillColor=none;align=left;verticalAlign=middle;spacingTop=-1;spacingLeft=3;spacingRight=3;rotatable=0;labelPosition=right;points=[];portConstraint=eastwest;strokeColor=inherit;" vertex="1" parent="IcqPFcGgj8i7zT8kl1B3-1">
          <mxGeometry y="60" width="180" height="10" as="geometry" />
        </mxCell>
        <mxCell id="IcqPFcGgj8i7zT8kl1B3-4" value="&lt;div&gt;+ Announcer()&lt;br&gt;&lt;/div&gt;&lt;div&gt;+ playAnnouncer()&lt;/div&gt;&lt;div&gt;+ getStation(): String&lt;/div&gt;&lt;div&gt;+ setStation(station:String)&lt;br&gt;&lt;/div&gt;" style="text;strokeColor=none;fillColor=none;align=left;verticalAlign=top;spacingLeft=4;spacingRight=4;overflow=hidden;rotatable=0;points=[[0,0.5],[1,0.5]];portConstraint=eastwest;whiteSpace=wrap;html=1;" vertex="1" parent="IcqPFcGgj8i7zT8kl1B3-1">
          <mxGeometry y="70" width="180" height="80" as="geometry" />
        </mxCell>
        <mxCell id="IcqPFcGgj8i7zT8kl1B3-5" value="&amp;lt;&amp;lt;final&amp;gt;&amp;gt; TrainDisplay" style="swimlane;fontStyle=1;align=center;verticalAlign=top;childLayout=stackLayout;horizontal=1;startSize=26;horizontalStack=0;resizeParent=1;resizeParentMax=0;resizeLast=0;collapsible=1;marginBottom=0;whiteSpace=wrap;html=1;" vertex="1" parent="1">
          <mxGeometry x="-115" y="-520" width="330" height="640" as="geometry" />
        </mxCell>
        <mxCell id="IcqPFcGgj8i7zT8kl1B3-6" value="- currentStation: int&lt;br&gt;- Line: String&lt;br&gt;- direction: String&lt;br&gt;- stationArray: ArrayList&amp;lt;String[]&amp;gt;&lt;br&gt;- stations: JLabel[]&lt;br&gt;- announcer: Announcer&lt;br&gt;- redFirst: int&lt;br&gt;- blueFirst: int&lt;br&gt;- greenFirst: int&lt;br&gt;- redLast: int&lt;br&gt;- blueLast: int&lt;br&gt;- greenLast: int&lt;div&gt;&lt;br/&gt;&lt;/div&gt;" style="text;strokeColor=none;fillColor=none;align=left;verticalAlign=top;spacingLeft=4;spacingRight=4;overflow=hidden;rotatable=0;points=[[0,0.5],[1,0.5]];portConstraint=eastwest;whiteSpace=wrap;html=1;" vertex="1" parent="IcqPFcGgj8i7zT8kl1B3-5">
          <mxGeometry y="26" width="330" height="194" as="geometry" />
        </mxCell>
        <mxCell id="IcqPFcGgj8i7zT8kl1B3-7" value="" style="line;strokeWidth=1;fillColor=none;align=left;verticalAlign=middle;spacingTop=-1;spacingLeft=3;spacingRight=3;rotatable=0;labelPosition=right;points=[];portConstraint=eastwest;strokeColor=inherit;" vertex="1" parent="IcqPFcGgj8i7zT8kl1B3-5">
          <mxGeometry y="220" width="330" height="8" as="geometry" />
        </mxCell>
        <mxCell id="IcqPFcGgj8i7zT8kl1B3-8" value="&lt;div&gt;+ TrainDisplay()&lt;/div&gt;&lt;div&gt;+ updateDisplaly()&lt;/div&gt;&lt;div&gt;+ stationMatcher(train: String)&lt;br&gt;&lt;/div&gt;+ getCurrentStation(): int&lt;br&gt;+ setCurrentStation(currentStation: int)&lt;br&gt;+ getLine(): String&lt;br&gt;+ setLine(Line: String)&lt;br&gt;+ getDirection(): String&lt;br&gt;+ setDirection(direction: String)&lt;br&gt;+ getStationArray(): ArrayList&amp;lt;String[]&amp;gt;&lt;br&gt;+ setStationArray(stationArray: ArrayList&amp;lt;String[]&amp;gt;)&lt;br&gt;+ getStations(): JLabel[]&lt;br&gt;+ setStations(stations: JLabel[])&lt;br&gt;+ getAnnouncer(): Announcer&lt;br&gt;+ setAnnouncer(announcer: Announcer)&lt;br&gt;+ getRedFirst(): int&lt;br&gt;+ setRedFirst(redFirst: int)&lt;br&gt;+ getBlueFirst(): int&lt;br&gt;+ setBlueFirst(blueFirst: int)&lt;br&gt;+ getGreenFirst(): int&lt;br&gt;+ setGreenFirst(greenFirst: int)&lt;br&gt;+ getRedLast(): int&lt;br&gt;+ setRedLast(redLast: int)&lt;br&gt;+ getBlueLast(): int&lt;br&gt;+ setBlueLast(blueLast: int)&lt;br&gt;+ getGreenLast(): int&lt;br&gt;+ setGreenLast(greenLast: int)&lt;div&gt;&lt;br&gt;&lt;/div&gt;" style="text;strokeColor=none;fillColor=none;align=left;verticalAlign=top;spacingLeft=4;spacingRight=4;overflow=hidden;rotatable=0;points=[[0,0.5],[1,0.5]];portConstraint=eastwest;whiteSpace=wrap;html=1;" vertex="1" parent="IcqPFcGgj8i7zT8kl1B3-5">
          <mxGeometry y="228" width="330" height="412" as="geometry" />
        </mxCell>
        <mxCell id="IcqPFcGgj8i7zT8kl1B3-28" value="newsApi" style="swimlane;fontStyle=1;align=center;verticalAlign=top;childLayout=stackLayout;horizontal=1;startSize=26;horizontalStack=0;resizeParent=1;resizeParentMax=0;resizeLast=0;collapsible=1;marginBottom=0;whiteSpace=wrap;html=1;" vertex="1" parent="1">
          <mxGeometry x="-835" y="-827" width="243" height="150" as="geometry" />
        </mxCell>
        <mxCell id="AytOjDMRRnrWP3ZTlFTI-8" value="- invokeApi(keyword: String): String[].&amp;nbsp; &amp;nbsp; &amp;nbsp; &amp;nbsp; &amp;nbsp;" style="text;html=1;align=center;verticalAlign=middle;resizable=0;points=[];autosize=1;strokeColor=none;fillColor=none;" vertex="1" parent="IcqPFcGgj8i7zT8kl1B3-28">
          <mxGeometry y="26" width="243" height="30" as="geometry" />
        </mxCell>
        <mxCell id="IcqPFcGgj8i7zT8kl1B3-30" value="&#xa;&#xa;&#xa;&#xa;" style="line;strokeWidth=1;fillColor=none;align=left;verticalAlign=middle;spacingTop=-1;spacingLeft=3;spacingRight=3;rotatable=0;labelPosition=right;points=[];portConstraint=eastwest;strokeColor=inherit;" vertex="1" parent="IcqPFcGgj8i7zT8kl1B3-28">
          <mxGeometry y="56" width="243" height="34" as="geometry" />
        </mxCell>
        <mxCell id="IcqPFcGgj8i7zT8kl1B3-31" value="+ mainNews(args: String[]): String[]&lt;div&gt;+ getKeyword(): String&lt;/div&gt;&lt;div&gt;+ setKeyword(keyword: String): void&lt;/div&gt;" style="text;strokeColor=none;fillColor=none;align=left;verticalAlign=top;spacingLeft=4;spacingRight=4;overflow=hidden;rotatable=0;points=[[0,0.5],[1,0.5]];portConstraint=eastwest;whiteSpace=wrap;html=1;" vertex="1" parent="IcqPFcGgj8i7zT8kl1B3-28">
          <mxGeometry y="90" width="243" height="60" as="geometry" />
        </mxCell>
        <mxCell id="S0AC8W0B4gAKUpKaHoqo-2" value="SubwayScreen" style="swimlane;fontStyle=1;align=center;verticalAlign=top;childLayout=stackLayout;horizontal=1;startSize=26;horizontalStack=0;resizeParent=1;resizeParentMax=0;resizeLast=0;collapsible=1;marginBottom=0;whiteSpace=wrap;html=1;" vertex="1" parent="1">
          <mxGeometry x="745" y="-558" width="360" height="200" as="geometry" />
        </mxCell>
        <mxCell id="S0AC8W0B4gAKUpKaHoqo-4" value="" style="line;strokeWidth=1;fillColor=none;align=left;verticalAlign=middle;spacingTop=-1;spacingLeft=3;spacingRight=3;rotatable=0;labelPosition=right;points=[];portConstraint=eastwest;strokeColor=inherit;" vertex="1" parent="S0AC8W0B4gAKUpKaHoqo-2">
          <mxGeometry y="26" width="360" height="8" as="geometry" />
        </mxCell>
        <mxCell id="S0AC8W0B4gAKUpKaHoqo-5" value="&lt;div&gt;&lt;u&gt;+ main(args: String[])&lt;br&gt;&lt;/u&gt;&lt;/div&gt;&lt;div&gt;&lt;u&gt;+ readMapCSV(fileName:String): ArrayList&amp;lt;String[]&amp;gt;&lt;/u&gt;&lt;/div&gt;&lt;div&gt;&lt;u&gt;+ extractTrains(trainLine:String[]): String[]&lt;br&gt;&lt;/u&gt;&lt;/div&gt;&lt;div&gt;&lt;u&gt;&lt;br&gt;&lt;/u&gt;&lt;/div&gt;" style="text;strokeColor=none;fillColor=none;align=left;verticalAlign=top;spacingLeft=4;spacingRight=4;overflow=hidden;rotatable=0;points=[[0,0.5],[1,0.5]];portConstraint=eastwest;whiteSpace=wrap;html=1;" vertex="1" parent="S0AC8W0B4gAKUpKaHoqo-2">
          <mxGeometry y="34" width="360" height="166" as="geometry" />
        </mxCell>
        <mxCell id="S0AC8W0B4gAKUpKaHoqo-44" value="&amp;lt;&amp;lt;final&amp;gt;&amp;gt; AdvertisementDisplay" style="swimlane;fontStyle=1;align=center;verticalAlign=top;childLayout=stackLayout;horizontal=1;startSize=26;horizontalStack=0;resizeParent=1;resizeParentMax=0;resizeLast=0;collapsible=1;marginBottom=0;whiteSpace=wrap;html=1;" vertex="1" parent="1">
          <mxGeometry x="-130" y="-1150" width="400" height="500" as="geometry" />
        </mxCell>
        <mxCell id="S0AC8W0B4gAKUpKaHoqo-45" value="- map: JLayeredPane&lt;br&gt;- adLabel: JLabel&lt;br&gt;- trains: JLabel[]&lt;br&gt;- currentTrain: String&lt;br&gt;- trainList: String[]&lt;br&gt;- stationArray: ArrayList&amp;lt;String[]&amp;gt;&lt;br&gt;- stationLabel: ArrayList&amp;lt;JLabel&amp;gt;&lt;br&gt;- adPhoto: ImageIcon[]&lt;br&gt;- adPosition: int&lt;div&gt;&lt;br/&gt;&lt;/div&gt;" style="text;strokeColor=none;fillColor=none;align=left;verticalAlign=top;spacingLeft=4;spacingRight=4;overflow=hidden;rotatable=0;points=[[0,0.5],[1,0.5]];portConstraint=eastwest;whiteSpace=wrap;html=1;" vertex="1" parent="S0AC8W0B4gAKUpKaHoqo-44">
          <mxGeometry y="26" width="400" height="144" as="geometry" />
        </mxCell>
        <mxCell id="S0AC8W0B4gAKUpKaHoqo-46" value="" style="line;strokeWidth=1;fillColor=none;align=left;verticalAlign=middle;spacingTop=-1;spacingLeft=3;spacingRight=3;rotatable=0;labelPosition=right;points=[];portConstraint=eastwest;strokeColor=inherit;" vertex="1" parent="S0AC8W0B4gAKUpKaHoqo-44">
          <mxGeometry y="170" width="400" height="8" as="geometry" />
        </mxCell>
        <mxCell id="S0AC8W0B4gAKUpKaHoqo-47" value="+ getMap(): JLayeredPane&lt;br&gt;+ setMap(map: JLayeredPane)&lt;br&gt;+ getAdLabel(): JLabel&lt;br&gt;+ setAdLabel(adLabel: JLabel)&lt;br&gt;+ getTrains(): JLabel[]&lt;br&gt;+ setTrains(trains: JLabel[])&lt;br&gt;+ getCurrentTrain(): String&lt;br&gt;+ setCurrentTrain(currentTrain: String)&lt;br&gt;+ getTrainList(): String[]&lt;br&gt;+ setTrainList(trainList: String[])&lt;br&gt;+ getStationArray(): ArrayList&amp;lt;String[]&amp;gt;&lt;br&gt;+ setStationArray(stationArray: ArrayList&amp;lt;String[]&amp;gt;)&lt;br&gt;+ getStationLabel(): ArrayList&amp;lt;JLabel&amp;gt;&lt;br&gt;+ setStationLabel(stationLabel: ArrayList&amp;lt;JLabel&amp;gt;)&lt;br&gt;+ getAdPhoto(): ImageIcon[]&lt;br&gt;+ setAdPhoto(adPhoto: ImageIcon[])&lt;br&gt;+ getAdPosition(): int&lt;br&gt;&lt;div&gt;+ setAdPosition(adPosition: int)&lt;/div&gt;&lt;div&gt;- resizeImage(imgFile:File, x:int, y:int): ImageIcon&lt;/div&gt;&lt;div&gt;- extractStationCoords(train:String, trainLabel:JLabel)&lt;br&gt;&lt;/div&gt;&lt;div&gt;- adTimer()&lt;br&gt;&lt;/div&gt;" style="text;strokeColor=none;fillColor=none;align=left;verticalAlign=top;spacingLeft=4;spacingRight=4;overflow=hidden;rotatable=0;points=[[0,0.5],[1,0.5]];portConstraint=eastwest;whiteSpace=wrap;html=1;" vertex="1" parent="S0AC8W0B4gAKUpKaHoqo-44">
          <mxGeometry y="178" width="400" height="322" as="geometry" />
        </mxCell>
        <mxCell id="xlQXFdwXtLHWSkhAeFi2-15" value="IllegalArgumentException" style="swimlane;fontStyle=0;childLayout=stackLayout;horizontal=1;startSize=26;fillColor=none;horizontalStack=0;resizeParent=1;resizeParentMax=0;resizeLast=0;collapsible=1;marginBottom=0;whiteSpace=wrap;html=1;" vertex="1" parent="1">
          <mxGeometry x="-1200" y="-260" width="140" height="52" as="geometry" />
        </mxCell>
        <mxCell id="xlQXFdwXtLHWSkhAeFi2-20" value="&amp;lt;&amp;lt;throws&amp;gt;&amp;gt;" style="endArrow=open;endSize=12;dashed=1;html=1;rounded=0;exitX=0;exitY=0.5;exitDx=0;exitDy=0;entryX=0.5;entryY=1;entryDx=0;entryDy=0;" edge="1" parent="1" source="AytOjDMRRnrWP3ZTlFTI-5" target="xlQXFdwXtLHWSkhAeFi2-15">
          <mxGeometry width="160" relative="1" as="geometry">
            <mxPoint x="-920.0000000000002" y="75" as="sourcePoint" />
            <mxPoint x="-1040" y="-330" as="targetPoint" />
          </mxGeometry>
        </mxCell>
        <mxCell id="xlQXFdwXtLHWSkhAeFi2-21" value="RuntimeException" style="swimlane;fontStyle=0;childLayout=stackLayout;horizontal=1;startSize=26;fillColor=none;horizontalStack=0;resizeParent=1;resizeParentMax=0;resizeLast=0;collapsible=1;marginBottom=0;whiteSpace=wrap;html=1;" vertex="1" parent="1">
          <mxGeometry x="-1045" y="-980" width="140" height="52" as="geometry" />
        </mxCell>
        <mxCell id="xlQXFdwXtLHWSkhAeFi2-22" value="&amp;lt;&amp;lt;throws&amp;gt;&amp;gt;" style="endArrow=open;endSize=12;dashed=1;html=1;rounded=0;exitX=0;exitY=0.5;exitDx=0;exitDy=0;entryX=0.5;entryY=1;entryDx=0;entryDy=0;" edge="1" parent="1" source="IcqPFcGgj8i7zT8kl1B3-31" target="xlQXFdwXtLHWSkhAeFi2-21">
          <mxGeometry width="160" relative="1" as="geometry">
            <mxPoint x="-625" y="-899" as="sourcePoint" />
            <mxPoint x="-445" y="-1027" as="targetPoint" />
          </mxGeometry>
        </mxCell>
        <mxCell id="ju2CR6-54bWdj0gQK7GD-1" value="&amp;lt;&amp;lt;final&amp;gt;&amp;gt;NewsDisplay" style="swimlane;fontStyle=1;align=center;verticalAlign=top;childLayout=stackLayout;horizontal=1;startSize=26;horizontalStack=0;resizeParent=1;resizeParentMax=0;resizeLast=0;collapsible=1;marginBottom=0;whiteSpace=wrap;html=1;" vertex="1" parent="1">
          <mxGeometry x="-71.25" y="-1880" width="310" height="230" as="geometry" />
        </mxCell>
        <mxCell id="ju2CR6-54bWdj0gQK7GD-2" value="- newsLabel: JLabel&lt;br&gt;- newsDescription: String[]&lt;br&gt;- newsPosition: int&lt;div&gt;&lt;br/&gt;&lt;/div&gt;" style="text;strokeColor=none;fillColor=none;align=left;verticalAlign=top;spacingLeft=4;spacingRight=4;overflow=hidden;rotatable=0;points=[[0,0.5],[1,0.5]];portConstraint=eastwest;whiteSpace=wrap;html=1;" vertex="1" parent="ju2CR6-54bWdj0gQK7GD-1">
          <mxGeometry y="26" width="310" height="64" as="geometry" />
        </mxCell>
        <mxCell id="ju2CR6-54bWdj0gQK7GD-3" value="" style="line;strokeWidth=1;fillColor=none;align=left;verticalAlign=middle;spacingTop=-1;spacingLeft=3;spacingRight=3;rotatable=0;labelPosition=right;points=[];portConstraint=eastwest;strokeColor=inherit;" vertex="1" parent="ju2CR6-54bWdj0gQK7GD-1">
          <mxGeometry y="90" width="310" height="8" as="geometry" />
        </mxCell>
        <mxCell id="ju2CR6-54bWdj0gQK7GD-4" value="&lt;div&gt;+ NewsDisplay(args: String[])&lt;/div&gt;&lt;div&gt;+ updateNewsDisplay()&lt;/div&gt;&lt;div&gt;+ getNewsLabel(): JLabel&lt;br&gt;+ setNewsLabel(newsLabel: JLabel)&lt;br&gt;+ getNewsDescription(): String[]&lt;br&gt;+ setNewsDescription(newsDescription: String[])&lt;br&gt;+ getNewsPosition(): int&lt;br&gt;+ setNewsPosition(newsPosition: int)&lt;br&gt;&lt;br&gt;&lt;/div&gt;" style="text;strokeColor=none;fillColor=none;align=left;verticalAlign=top;spacingLeft=4;spacingRight=4;overflow=hidden;rotatable=0;points=[[0,0.5],[1,0.5]];portConstraint=eastwest;whiteSpace=wrap;html=1;" vertex="1" parent="ju2CR6-54bWdj0gQK7GD-1">
          <mxGeometry y="98" width="310" height="132" as="geometry" />
        </mxCell>
        <mxCell id="ju2CR6-54bWdj0gQK7GD-13" value="&amp;lt;&amp;lt;final&amp;gt;&amp;gt; WeatherDisplay" style="swimlane;fontStyle=1;align=center;verticalAlign=top;childLayout=stackLayout;horizontal=1;startSize=26;horizontalStack=0;resizeParent=1;resizeParentMax=0;resizeLast=0;collapsible=1;marginBottom=0;whiteSpace=wrap;html=1;" vertex="1" parent="1">
          <mxGeometry x="-80" y="640" width="220" height="160" as="geometry" />
        </mxCell>
        <mxCell id="ju2CR6-54bWdj0gQK7GD-14" value="- timeLabel: JLabel" style="text;strokeColor=none;fillColor=none;align=left;verticalAlign=top;spacingLeft=4;spacingRight=4;overflow=hidden;rotatable=0;points=[[0,0.5],[1,0.5]];portConstraint=eastwest;whiteSpace=wrap;html=1;" vertex="1" parent="ju2CR6-54bWdj0gQK7GD-13">
          <mxGeometry y="26" width="220" height="54" as="geometry" />
        </mxCell>
        <mxCell id="ju2CR6-54bWdj0gQK7GD-15" value="" style="line;strokeWidth=1;fillColor=none;align=left;verticalAlign=middle;spacingTop=-1;spacingLeft=3;spacingRight=3;rotatable=0;labelPosition=right;points=[];portConstraint=eastwest;strokeColor=inherit;" vertex="1" parent="ju2CR6-54bWdj0gQK7GD-13">
          <mxGeometry y="80" width="220" height="8" as="geometry" />
        </mxCell>
        <mxCell id="ju2CR6-54bWdj0gQK7GD-16" value="&lt;div&gt;+ WeatherDisplay()&lt;/div&gt;&lt;div&gt;+ updateWeatherDisplay()&lt;br&gt;&lt;/div&gt;&lt;div&gt;+ getTimeLabel(): JLabel&lt;/div&gt;&lt;div&gt;+ setTimeLabel(timeLabel:JLabel)&lt;br&gt;&lt;/div&gt;&lt;div&gt;&lt;br&gt;&lt;/div&gt;" style="text;strokeColor=none;fillColor=none;align=left;verticalAlign=top;spacingLeft=4;spacingRight=4;overflow=hidden;rotatable=0;points=[[0,0.5],[1,0.5]];portConstraint=eastwest;whiteSpace=wrap;html=1;" vertex="1" parent="ju2CR6-54bWdj0gQK7GD-13">
          <mxGeometry y="88" width="220" height="72" as="geometry" />
        </mxCell>
        <mxCell id="-9KY7qy1EyLOkNSAVN4s-1" value="&lt;i&gt;Display&lt;/i&gt;" style="swimlane;fontStyle=1;align=center;verticalAlign=top;childLayout=stackLayout;horizontal=1;startSize=26;horizontalStack=0;resizeParent=1;resizeParentMax=0;resizeLast=0;collapsible=1;marginBottom=0;whiteSpace=wrap;html=1;" vertex="1" parent="1">
          <mxGeometry x="-665" y="-540" width="230" height="190" as="geometry" />
        </mxCell>
        <mxCell id="-9KY7qy1EyLOkNSAVN4s-2" value="# display: JLayeredPane" style="text;strokeColor=none;fillColor=none;align=left;verticalAlign=top;spacingLeft=4;spacingRight=4;overflow=hidden;rotatable=0;points=[[0,0.5],[1,0.5]];portConstraint=eastwest;whiteSpace=wrap;html=1;" vertex="1" parent="-9KY7qy1EyLOkNSAVN4s-1">
          <mxGeometry y="26" width="230" height="26" as="geometry" />
        </mxCell>
        <mxCell id="-9KY7qy1EyLOkNSAVN4s-3" value="" style="line;strokeWidth=1;fillColor=none;align=left;verticalAlign=middle;spacingTop=-1;spacingLeft=3;spacingRight=3;rotatable=0;labelPosition=right;points=[];portConstraint=eastwest;strokeColor=inherit;" vertex="1" parent="-9KY7qy1EyLOkNSAVN4s-1">
          <mxGeometry y="52" width="230" height="8" as="geometry" />
        </mxCell>
        <mxCell id="-9KY7qy1EyLOkNSAVN4s-4" value="&lt;div&gt;+ Display()&lt;br&gt;&lt;/div&gt;&lt;div&gt;+ getDisplay(): JLayeredPane&lt;/div&gt;&lt;div&gt;+ setDisplay(display: JLayeredPane)&lt;br&gt;&lt;/div&gt;&lt;div&gt;&lt;br&gt;&lt;/div&gt;" style="text;strokeColor=none;fillColor=none;align=left;verticalAlign=top;spacingLeft=4;spacingRight=4;overflow=hidden;rotatable=0;points=[[0,0.5],[1,0.5]];portConstraint=eastwest;whiteSpace=wrap;html=1;" vertex="1" parent="-9KY7qy1EyLOkNSAVN4s-1">
          <mxGeometry y="60" width="230" height="130" as="geometry" />
        </mxCell>
        <mxCell id="-9KY7qy1EyLOkNSAVN4s-5" value="" style="endArrow=block;endSize=16;endFill=0;html=1;rounded=0;exitX=0;exitY=0.5;exitDx=0;exitDy=0;entryX=0.25;entryY=0;entryDx=0;entryDy=0;" edge="1" parent="1" source="ju2CR6-54bWdj0gQK7GD-4" target="-9KY7qy1EyLOkNSAVN4s-1">
          <mxGeometry width="160" relative="1" as="geometry">
            <mxPoint x="-685" y="-650" as="sourcePoint" />
            <mxPoint x="-525" y="-650" as="targetPoint" />
            <Array as="points">
              <mxPoint x="-300" y="-1716" />
              <mxPoint x="-290" y="-670" />
              <mxPoint x="-607" y="-670" />
            </Array>
          </mxGeometry>
        </mxCell>
        <mxCell id="-9KY7qy1EyLOkNSAVN4s-7" value="" style="endArrow=block;endSize=16;endFill=0;html=1;rounded=0;exitX=0;exitY=0.5;exitDx=0;exitDy=0;entryX=1;entryY=0.5;entryDx=0;entryDy=0;" edge="1" parent="1" source="S0AC8W0B4gAKUpKaHoqo-47" target="-9KY7qy1EyLOkNSAVN4s-2">
          <mxGeometry width="160" relative="1" as="geometry">
            <mxPoint x="-495" y="-786" as="sourcePoint" />
            <mxPoint x="-257" y="-680" as="targetPoint" />
            <Array as="points">
              <mxPoint x="-220" y="-810" />
              <mxPoint x="-220" y="-500" />
            </Array>
          </mxGeometry>
        </mxCell>
        <mxCell id="-9KY7qy1EyLOkNSAVN4s-8" value="" style="endArrow=block;endSize=16;endFill=0;html=1;rounded=0;exitX=0;exitY=0.5;exitDx=0;exitDy=0;entryX=1;entryY=0.5;entryDx=0;entryDy=0;" edge="1" parent="1" source="IcqPFcGgj8i7zT8kl1B3-6" target="-9KY7qy1EyLOkNSAVN4s-4">
          <mxGeometry width="160" relative="1" as="geometry">
            <mxPoint x="-70.25999999999999" y="-690" as="sourcePoint" />
            <mxPoint x="-415.26" y="-381" as="targetPoint" />
            <Array as="points">
              <mxPoint x="-255" y="-395" />
              <mxPoint x="-255" y="-415" />
            </Array>
          </mxGeometry>
        </mxCell>
        <mxCell id="-9KY7qy1EyLOkNSAVN4s-9" value="" style="endArrow=block;endSize=16;endFill=0;html=1;rounded=0;exitX=0;exitY=0.5;exitDx=0;exitDy=0;entryX=0.274;entryY=1.015;entryDx=0;entryDy=0;entryPerimeter=0;" edge="1" parent="1" source="ju2CR6-54bWdj0gQK7GD-14" target="-9KY7qy1EyLOkNSAVN4s-4">
          <mxGeometry width="160" relative="1" as="geometry">
            <mxPoint x="-961" y="-340" as="sourcePoint" />
            <mxPoint x="-723" y="-234" as="targetPoint" />
            <Array as="points">
              <mxPoint x="-590" y="693" />
            </Array>
          </mxGeometry>
        </mxCell>
        <mxCell id="-9KY7qy1EyLOkNSAVN4s-10" value="" style="endArrow=diamondThin;endFill=1;endSize=24;html=1;rounded=0;exitX=1;exitY=0.063;exitDx=0;exitDy=0;entryX=0.534;entryY=1.024;entryDx=0;entryDy=0;entryPerimeter=0;exitPerimeter=0;" edge="1" parent="1" source="ju2CR6-54bWdj0gQK7GD-13" target="S0AC8W0B4gAKUpKaHoqo-5">
          <mxGeometry width="160" relative="1" as="geometry">
            <mxPoint x="-885.8695652173913" y="-60" as="sourcePoint" />
            <mxPoint x="830" y="-260" as="targetPoint" />
            <Array as="points">
              <mxPoint x="940" y="640" />
            </Array>
          </mxGeometry>
        </mxCell>
        <mxCell id="-9KY7qy1EyLOkNSAVN4s-11" value="" style="endArrow=diamondThin;endFill=1;endSize=24;html=1;rounded=0;exitX=1;exitY=0.5;exitDx=0;exitDy=0;entryX=-0.006;entryY=0.617;entryDx=0;entryDy=0;entryPerimeter=0;" edge="1" parent="1" source="IcqPFcGgj8i7zT8kl1B3-8" target="S0AC8W0B4gAKUpKaHoqo-5">
          <mxGeometry width="160" relative="1" as="geometry">
            <mxPoint x="-831" y="-342" as="sourcePoint" />
            <mxPoint x="745" y="-520" as="targetPoint" />
            <Array as="points">
              <mxPoint x="490" y="-86" />
              <mxPoint x="490" y="-422" />
            </Array>
          </mxGeometry>
        </mxCell>
        <mxCell id="-9KY7qy1EyLOkNSAVN4s-12" value="" style="endArrow=diamondThin;endFill=1;endSize=24;html=1;rounded=0;exitX=1;exitY=0.5;exitDx=0;exitDy=0;entryX=-0.006;entryY=0.083;entryDx=0;entryDy=0;entryPerimeter=0;" edge="1" parent="1" source="S0AC8W0B4gAKUpKaHoqo-45" target="S0AC8W0B4gAKUpKaHoqo-5">
          <mxGeometry width="160" relative="1" as="geometry">
            <mxPoint x="184.70000000000005" y="-1390.0700000000002" as="sourcePoint" />
            <mxPoint x="527.7" y="-954.07" as="targetPoint" />
            <Array as="points">
              <mxPoint x="460" y="-1050" />
              <mxPoint x="470" y="-510" />
            </Array>
          </mxGeometry>
        </mxCell>
        <mxCell id="-9KY7qy1EyLOkNSAVN4s-13" value="" style="endArrow=diamondThin;endFill=1;endSize=24;html=1;rounded=0;exitX=1.001;exitY=0.067;exitDx=0;exitDy=0;entryX=0.5;entryY=0;entryDx=0;entryDy=0;exitPerimeter=0;" edge="1" parent="1" source="ju2CR6-54bWdj0gQK7GD-1" target="S0AC8W0B4gAKUpKaHoqo-2">
          <mxGeometry width="160" relative="1" as="geometry">
            <mxPoint x="-385" y="-1430" as="sourcePoint" />
            <mxPoint x="-42" y="-994" as="targetPoint" />
            <Array as="points">
              <mxPoint x="920" y="-1860" />
            </Array>
          </mxGeometry>
        </mxCell>
        <mxCell id="-9KY7qy1EyLOkNSAVN4s-14" value="1" style="text;html=1;align=center;verticalAlign=middle;resizable=0;points=[];autosize=1;strokeColor=none;fillColor=none;" vertex="1" parent="1">
          <mxGeometry x="950" y="-358" width="30" height="30" as="geometry" />
        </mxCell>
        <mxCell id="-9KY7qy1EyLOkNSAVN4s-15" value="1" style="text;html=1;align=center;verticalAlign=middle;resizable=0;points=[];autosize=1;strokeColor=none;fillColor=none;" vertex="1" parent="1">
          <mxGeometry x="140" y="650" width="30" height="30" as="geometry" />
        </mxCell>
        <mxCell id="-9KY7qy1EyLOkNSAVN4s-17" value="1" style="text;html=1;align=center;verticalAlign=middle;resizable=0;points=[];autosize=1;strokeColor=none;fillColor=none;" vertex="1" parent="1">
          <mxGeometry x="715" y="-460" width="30" height="30" as="geometry" />
        </mxCell>
        <mxCell id="-9KY7qy1EyLOkNSAVN4s-18" value="1" style="text;html=1;align=center;verticalAlign=middle;resizable=0;points=[];autosize=1;strokeColor=none;fillColor=none;" vertex="1" parent="1">
          <mxGeometry x="270" y="-1080" width="30" height="30" as="geometry" />
        </mxCell>
        <mxCell id="-9KY7qy1EyLOkNSAVN4s-19" value="1" style="text;html=1;align=center;verticalAlign=middle;resizable=0;points=[];autosize=1;strokeColor=none;fillColor=none;" vertex="1" parent="1">
          <mxGeometry x="720" y="-510" width="30" height="30" as="geometry" />
        </mxCell>
        <mxCell id="-9KY7qy1EyLOkNSAVN4s-20" value="1" style="text;html=1;align=center;verticalAlign=middle;resizable=0;points=[];autosize=1;strokeColor=none;fillColor=none;" vertex="1" parent="1">
          <mxGeometry x="930" y="-588" width="30" height="30" as="geometry" />
        </mxCell>
        <mxCell id="-9KY7qy1EyLOkNSAVN4s-27" value="1" style="text;html=1;align=center;verticalAlign=middle;resizable=0;points=[];autosize=1;strokeColor=none;fillColor=none;" vertex="1" parent="1">
          <mxGeometry x="215" y="-80" width="30" height="30" as="geometry" />
        </mxCell>
        <mxCell id="-9KY7qy1EyLOkNSAVN4s-28" value="1" style="text;html=1;align=center;verticalAlign=middle;resizable=0;points=[];autosize=1;strokeColor=none;fillColor=none;" vertex="1" parent="1">
          <mxGeometry x="250" y="-1910" width="30" height="30" as="geometry" />
        </mxCell>
        <mxCell id="-9KY7qy1EyLOkNSAVN4s-34" value="Uses" style="endArrow=open;endSize=12;dashed=1;html=1;rounded=0;entryX=1;entryY=0.5;entryDx=0;entryDy=0;exitX=0;exitY=0.5;exitDx=0;exitDy=0;" edge="1" parent="1" source="ju2CR6-54bWdj0gQK7GD-2" target="IcqPFcGgj8i7zT8kl1B3-31">
          <mxGeometry width="160" relative="1" as="geometry">
            <mxPoint x="-821" y="-995" as="sourcePoint" />
            <mxPoint x="-651" y="-1090" as="targetPoint" />
            <Array as="points">
              <mxPoint x="-540" y="-1822" />
              <mxPoint x="-530" y="-780" />
            </Array>
          </mxGeometry>
        </mxCell>
        <mxCell id="-9KY7qy1EyLOkNSAVN4s-35" value="&amp;lt;&amp;lt;Uses&amp;gt;&amp;gt;" style="endArrow=open;endSize=12;dashed=1;html=1;rounded=0;exitX=0;exitY=0.5;exitDx=0;exitDy=0;entryX=0.48;entryY=1.024;entryDx=0;entryDy=0;entryPerimeter=0;" edge="1" parent="1" source="ju2CR6-54bWdj0gQK7GD-16" target="AytOjDMRRnrWP3ZTlFTI-7">
          <mxGeometry width="160" relative="1" as="geometry">
            <mxPoint x="-1075" y="-387" as="sourcePoint" />
            <mxPoint x="-819" y="110" as="targetPoint" />
            <Array as="points">
              <mxPoint x="-830" y="760" />
            </Array>
          </mxGeometry>
        </mxCell>
        <mxCell id="90M-DwFBhYn0AhnXL159-17" value="&amp;lt;&amp;lt;throws&amp;gt;&amp;gt;" style="endArrow=open;endSize=12;dashed=1;html=1;rounded=0;entryX=1;entryY=0.5;entryDx=0;entryDy=0;exitX=0;exitY=0.5;exitDx=0;exitDy=0;" edge="1" parent="1" source="IcqPFcGgj8i7zT8kl1B3-4" target="90M-DwFBhYn0AhnXL159-18">
          <mxGeometry width="160" relative="1" as="geometry">
            <mxPoint x="585" y="100" as="sourcePoint" />
            <mxPoint x="745" y="20" as="targetPoint" />
          </mxGeometry>
        </mxCell>
        <mxCell id="90M-DwFBhYn0AhnXL159-18" value="IOException" style="swimlane;fontStyle=0;childLayout=stackLayout;horizontal=1;startSize=26;fillColor=none;horizontalStack=0;resizeParent=1;resizeParentMax=0;resizeLast=0;collapsible=1;marginBottom=0;whiteSpace=wrap;html=1;" vertex="1" parent="1">
          <mxGeometry x="-100" y="304" width="160" height="52" as="geometry" />
        </mxCell>
        <mxCell id="90M-DwFBhYn0AhnXL159-19" value="&amp;lt;&amp;lt;throws&amp;gt;&amp;gt;" style="endArrow=open;endSize=12;dashed=1;html=1;rounded=0;exitX=0.287;exitY=1.016;exitDx=0;exitDy=0;exitPerimeter=0;entryX=0.5;entryY=0;entryDx=0;entryDy=0;" edge="1" parent="1" source="IcqPFcGgj8i7zT8kl1B3-8" target="90M-DwFBhYn0AhnXL159-18">
          <mxGeometry width="160" relative="1" as="geometry">
            <mxPoint x="37.5" y="-177" as="sourcePoint" />
            <mxPoint x="152.5" y="-118" as="targetPoint" />
          </mxGeometry>
        </mxCell>
        <mxCell id="90M-DwFBhYn0AhnXL159-28" value="mySQL" style="swimlane;fontStyle=1;align=center;verticalAlign=top;childLayout=stackLayout;horizontal=1;startSize=26;horizontalStack=0;resizeParent=1;resizeParentMax=0;resizeLast=0;collapsible=1;marginBottom=0;whiteSpace=wrap;html=1;" vertex="1" parent="1">
          <mxGeometry x="352.5" y="-1340" width="160" height="86" as="geometry" />
        </mxCell>
        <mxCell id="90M-DwFBhYn0AhnXL159-29" value="+ field: type" style="text;strokeColor=none;fillColor=none;align=left;verticalAlign=top;spacingLeft=4;spacingRight=4;overflow=hidden;rotatable=0;points=[[0,0.5],[1,0.5]];portConstraint=eastwest;whiteSpace=wrap;html=1;" vertex="1" parent="90M-DwFBhYn0AhnXL159-28">
          <mxGeometry y="26" width="160" height="26" as="geometry" />
        </mxCell>
        <mxCell id="90M-DwFBhYn0AhnXL159-30" value="" style="line;strokeWidth=1;fillColor=none;align=left;verticalAlign=middle;spacingTop=-1;spacingLeft=3;spacingRight=3;rotatable=0;labelPosition=right;points=[];portConstraint=eastwest;strokeColor=inherit;" vertex="1" parent="90M-DwFBhYn0AhnXL159-28">
          <mxGeometry y="52" width="160" height="8" as="geometry" />
        </mxCell>
        <mxCell id="90M-DwFBhYn0AhnXL159-31" value="+ method(type): type" style="text;strokeColor=none;fillColor=none;align=left;verticalAlign=top;spacingLeft=4;spacingRight=4;overflow=hidden;rotatable=0;points=[[0,0.5],[1,0.5]];portConstraint=eastwest;whiteSpace=wrap;html=1;" vertex="1" parent="90M-DwFBhYn0AhnXL159-28">
          <mxGeometry y="60" width="160" height="26" as="geometry" />
        </mxCell>
        <mxCell id="90M-DwFBhYn0AhnXL159-33" value="&amp;lt;&amp;lt;Uses&amp;gt;&amp;gt;" style="endArrow=open;endSize=12;dashed=1;html=1;rounded=0;entryX=0;entryY=0.5;entryDx=0;entryDy=0;exitX=0.5;exitY=0;exitDx=0;exitDy=0;" edge="1" parent="1" source="S0AC8W0B4gAKUpKaHoqo-44" target="90M-DwFBhYn0AhnXL159-29">
          <mxGeometry width="160" relative="1" as="geometry">
            <mxPoint x="-7.5" y="-1297.42" as="sourcePoint" />
            <mxPoint x="152.5" y="-1297.42" as="targetPoint" />
            <Array as="points">
              <mxPoint x="70" y="-1300" />
            </Array>
          </mxGeometry>
        </mxCell>
        <mxCell id="90M-DwFBhYn0AhnXL159-44" value="&amp;lt;&amp;lt;throws&amp;gt;&amp;gt;" style="endArrow=open;endSize=12;dashed=1;html=1;rounded=0;entryX=0;entryY=0.5;entryDx=0;entryDy=0;exitX=1.002;exitY=0.29;exitDx=0;exitDy=0;exitPerimeter=0;" edge="1" parent="1" source="S0AC8W0B4gAKUpKaHoqo-5" target="90M-DwFBhYn0AhnXL159-46">
          <mxGeometry width="160" relative="1" as="geometry">
            <mxPoint x="1396.5" y="-490" as="sourcePoint" />
            <mxPoint x="1338.4852941176468" y="-410" as="targetPoint" />
          </mxGeometry>
        </mxCell>
        <mxCell id="90M-DwFBhYn0AhnXL159-46" value="IllegalArgumentException" style="swimlane;fontStyle=0;childLayout=stackLayout;horizontal=1;startSize=26;fillColor=none;horizontalStack=0;resizeParent=1;resizeParentMax=0;resizeLast=0;collapsible=1;marginBottom=0;whiteSpace=wrap;html=1;" vertex="1" parent="1">
          <mxGeometry x="1330" y="-552" width="203.01" height="52" as="geometry" />
        </mxCell>
        <mxCell id="XpLS7fQvpL7s-l0cFpdj-2" value="&amp;lt;&amp;lt;throws&amp;gt;&amp;gt;" style="endArrow=open;endSize=12;dashed=1;html=1;rounded=0;exitX=1.002;exitY=0.663;exitDx=0;exitDy=0;exitPerimeter=0;entryX=0;entryY=0.5;entryDx=0;entryDy=0;" edge="1" parent="1" source="S0AC8W0B4gAKUpKaHoqo-5" target="XpLS7fQvpL7s-l0cFpdj-3">
          <mxGeometry width="160" relative="1" as="geometry">
            <mxPoint x="1115.96" y="-280.22" as="sourcePoint" />
            <mxPoint x="1064.96" y="-191.22" as="targetPoint" />
          </mxGeometry>
        </mxCell>
        <mxCell id="XpLS7fQvpL7s-l0cFpdj-3" value="IOException" style="swimlane;fontStyle=0;childLayout=stackLayout;horizontal=1;startSize=26;fillColor=none;horizontalStack=0;resizeParent=1;resizeParentMax=0;resizeLast=0;collapsible=1;marginBottom=0;whiteSpace=wrap;html=1;" vertex="1" parent="1">
          <mxGeometry x="1350" y="-390" width="203.01" height="52" as="geometry" />
        </mxCell>
        <mxCell id="XpLS7fQvpL7s-l0cFpdj-12" value="" style="endArrow=classic;html=1;rounded=0;entryX=0.5;entryY=0;entryDx=0;entryDy=0;exitX=0.994;exitY=0.817;exitDx=0;exitDy=0;exitPerimeter=0;" edge="1" parent="1" source="IcqPFcGgj8i7zT8kl1B3-8" target="IcqPFcGgj8i7zT8kl1B3-1">
          <mxGeometry width="50" height="50" relative="1" as="geometry">
            <mxPoint x="-125" y="-80" as="sourcePoint" />
            <mxPoint x="-75" y="-130" as="targetPoint" />
            <Array as="points">
              <mxPoint x="300" y="45" />
            </Array>
          </mxGeometry>
        </mxCell>
        <mxCell id="XpLS7fQvpL7s-l0cFpdj-13" value="&amp;lt;&amp;lt;Uses&amp;gt;&amp;gt;" style="endArrow=open;endSize=12;dashed=1;html=1;rounded=0;entryX=1.017;entryY=0.912;entryDx=0;entryDy=0;entryPerimeter=0;exitX=0.306;exitY=0.988;exitDx=0;exitDy=0;exitPerimeter=0;" edge="1" parent="1" source="S0AC8W0B4gAKUpKaHoqo-5" target="XpLS7fQvpL7s-l0cFpdj-11">
          <mxGeometry width="160" relative="1" as="geometry">
            <mxPoint x="450" y="310" as="sourcePoint" />
            <mxPoint x="10" y="-260" as="targetPoint" />
            <Array as="points">
              <mxPoint x="860" y="280" />
            </Array>
          </mxGeometry>
        </mxCell>
        <mxCell id="XpLS7fQvpL7s-l0cFpdj-15" value="1" style="text;html=1;align=center;verticalAlign=middle;resizable=0;points=[];autosize=1;strokeColor=none;fillColor=none;" vertex="1" parent="1">
          <mxGeometry x="215" y="50" width="30" height="30" as="geometry" />
        </mxCell>
        <mxCell id="XpLS7fQvpL7s-l0cFpdj-16" value="1" style="text;html=1;align=center;verticalAlign=middle;resizable=0;points=[];autosize=1;strokeColor=none;fillColor=none;" vertex="1" parent="1">
          <mxGeometry x="310" y="190" width="30" height="30" as="geometry" />
        </mxCell>
        <mxCell id="AytOjDMRRnrWP3ZTlFTI-4" value="weatherReportParse" style="swimlane;fontStyle=1;align=center;verticalAlign=top;childLayout=stackLayout;horizontal=1;startSize=26;horizontalStack=0;resizeParent=1;resizeParentMax=0;resizeLast=0;collapsible=1;marginBottom=0;whiteSpace=wrap;html=1;" vertex="1" parent="1">
          <mxGeometry x="-1010" y="-70" width="380" height="320" as="geometry" />
        </mxCell>
        <mxCell id="AytOjDMRRnrWP3ZTlFTI-5" value="&lt;div&gt;- URL: String&lt;/div&gt;&lt;div&gt;- cityID: String&lt;/div&gt;&lt;div&gt;- weatherReport: String&lt;/div&gt;&lt;div&gt;&lt;br&gt;&lt;/div&gt;" style="text;strokeColor=none;fillColor=none;align=left;verticalAlign=top;spacingLeft=4;spacingRight=4;overflow=hidden;rotatable=0;points=[[0,0.5],[1,0.5]];portConstraint=eastwest;whiteSpace=wrap;html=1;" vertex="1" parent="AytOjDMRRnrWP3ZTlFTI-4">
          <mxGeometry y="26" width="380" height="54" as="geometry" />
        </mxCell>
        <mxCell id="AytOjDMRRnrWP3ZTlFTI-6" value="" style="line;strokeWidth=1;fillColor=none;align=left;verticalAlign=middle;spacingTop=-1;spacingLeft=3;spacingRight=3;rotatable=0;labelPosition=right;points=[];portConstraint=eastwest;strokeColor=inherit;" vertex="1" parent="AytOjDMRRnrWP3ZTlFTI-4">
          <mxGeometry y="80" width="380" height="8" as="geometry" />
        </mxCell>
        <mxCell id="AytOjDMRRnrWP3ZTlFTI-7" value="+ weatherMain(args : String[]) : void&lt;div&gt;+ WeatherReportURL()&lt;/div&gt;&lt;div&gt;+ fetchWeatherReport(cityID: String) : Document&lt;/div&gt;&lt;div&gt;+ WeatherReportParser()&lt;/div&gt;&lt;div&gt;+ parseWeatherReport(document : Document, cityID: String): String&lt;/div&gt;&lt;div&gt;+WeatherReportDisplay()&lt;/div&gt;&lt;div&gt;+ displayWeatherReport(cityID : String, weatherReport: String): void&lt;/div&gt;&lt;div&gt;+ get URL(): String&lt;/div&gt;&lt;div&gt;+ setURL(URL: String): void&lt;/div&gt;&lt;div&gt;+ getCityID(): String&lt;/div&gt;&lt;div&gt;+ setCityID(cityID: String): void&lt;/div&gt;&lt;div&gt;+ getWeatherReport(): String&lt;/div&gt;&lt;div&gt;+ setWeatherReport(cityID: String)&lt;/div&gt;&lt;div&gt;&lt;br&gt;&lt;/div&gt;" style="text;strokeColor=none;fillColor=none;align=left;verticalAlign=top;spacingLeft=4;spacingRight=4;overflow=hidden;rotatable=0;points=[[0,0.5],[1,0.5]];portConstraint=eastwest;whiteSpace=wrap;html=1;" vertex="1" parent="AytOjDMRRnrWP3ZTlFTI-4">
          <mxGeometry y="88" width="380" height="232" as="geometry" />
        </mxCell>
      </root>
    </mxGraphModel>
  </diagram>
</mxfile>
